<mxfile host="app.diagrams.net" modified="2022-03-07T10:55:23.875Z" agent="5.0 (Windows NT 10.0; Win64; x64) AppleWebKit/537.36 (KHTML, like Gecko) Chrome/99.0.4844.51 Safari/537.36" etag="Quo043ruUww4PMmhCnh4" version="16.6.6" type="github">
  <diagram name="Page-1" id="e7e014a7-5840-1c2e-5031-d8a46d1fe8dd">
    <mxGraphModel dx="1185" dy="662" grid="1" gridSize="10" guides="1" tooltips="1" connect="1" arrows="1" fold="1" page="1" pageScale="1" pageWidth="1169" pageHeight="826" background="none" math="0" shadow="0">
      <root>
        <mxCell id="0" />
        <mxCell id="1" parent="0" />
        <mxCell id="2" value="页面操作" style="swimlane;whiteSpace=wrap" parent="1" vertex="1">
          <mxGeometry x="164.5" y="128" width="225.5" height="570" as="geometry" />
        </mxCell>
        <mxCell id="EH8jYJosOtOeuhWnZdbH-41" value="保存" style="ellipse;whiteSpace=wrap;html=1;aspect=fixed;" parent="2" vertex="1">
          <mxGeometry x="65.5" y="192" width="80" height="80" as="geometry" />
        </mxCell>
        <mxCell id="9UlX4zQVtP0Rxpw7Rmi_-41" value="引入" style="ellipse;whiteSpace=wrap;html=1;aspect=fixed;" vertex="1" parent="2">
          <mxGeometry x="65.5" y="52" width="80" height="80" as="geometry" />
        </mxCell>
        <mxCell id="9UlX4zQVtP0Rxpw7Rmi_-61" value="实物卡f7&lt;br&gt;分录选择" style="ellipse;whiteSpace=wrap;html=1;aspect=fixed;" vertex="1" parent="2">
          <mxGeometry x="65.5" y="426" width="80" height="80" as="geometry" />
        </mxCell>
        <mxCell id="9UlX4zQVtP0Rxpw7Rmi_-73" value="错误提示" style="rounded=1;whiteSpace=wrap;html=1;" vertex="1" parent="2">
          <mxGeometry x="130" y="330" width="65.5" height="32" as="geometry" />
        </mxCell>
        <mxCell id="3" value="插件" style="swimlane;whiteSpace=wrap" parent="1" vertex="1">
          <mxGeometry x="390" y="128" width="334.5" height="570" as="geometry" />
        </mxCell>
        <mxCell id="15" value="减值单保存校验" style="" parent="3" vertex="1">
          <mxGeometry x="105" y="202" width="110" height="50" as="geometry" />
        </mxCell>
        <mxCell id="9UlX4zQVtP0Rxpw7Rmi_-52" value="" style="edgeStyle=orthogonalEdgeStyle;rounded=0;orthogonalLoop=1;jettySize=auto;html=1;" edge="1" parent="3" source="18">
          <mxGeometry relative="1" as="geometry">
            <mxPoint x="160" y="202" as="targetPoint" />
          </mxGeometry>
        </mxCell>
        <mxCell id="18" value="after import data监听" style="" parent="3" vertex="1">
          <mxGeometry x="105" y="62" width="110" height="50" as="geometry" />
        </mxCell>
        <mxCell id="9UlX4zQVtP0Rxpw7Rmi_-58" value="调用" style="text;html=1;align=center;verticalAlign=middle;resizable=0;points=[];autosize=1;strokeColor=none;fillColor=none;" vertex="1" parent="3">
          <mxGeometry x="120" y="142" width="40" height="20" as="geometry" />
        </mxCell>
        <mxCell id="9UlX4zQVtP0Rxpw7Rmi_-60" value="调用" style="text;html=1;align=center;verticalAlign=middle;resizable=0;points=[];autosize=1;strokeColor=none;fillColor=none;" vertex="1" parent="3">
          <mxGeometry x="120" y="275" width="40" height="20" as="geometry" />
        </mxCell>
        <mxCell id="9UlX4zQVtP0Rxpw7Rmi_-68" value="校验减值单内&lt;br&gt;资产分录在&lt;br style=&quot;padding: 0px ; margin: 0px&quot;&gt;同一期的唯一性" style="rhombus;whiteSpace=wrap;html=1;fillColor=rgb(255, 255, 255);strokeColor=rgb(0, 0, 0);fontColor=rgb(0, 0, 0);" vertex="1" parent="3">
          <mxGeometry x="100" y="302" width="120" height="88" as="geometry" />
        </mxCell>
        <mxCell id="9UlX4zQVtP0Rxpw7Rmi_-69" value="" style="edgeStyle=orthogonalEdgeStyle;rounded=0;orthogonalLoop=1;jettySize=auto;html=1;" edge="1" parent="3" target="9UlX4zQVtP0Rxpw7Rmi_-68">
          <mxGeometry relative="1" as="geometry">
            <mxPoint x="160" y="252" as="sourcePoint" />
          </mxGeometry>
        </mxCell>
        <mxCell id="9UlX4zQVtP0Rxpw7Rmi_-74" value="&lt;span&gt;校验选中资产&lt;/span&gt;&lt;br style=&quot;padding: 0px ; margin: 0px&quot;&gt;&lt;span&gt;是否已存在于&lt;/span&gt;当期&lt;span&gt;&lt;br&gt;减值单&lt;/span&gt;" style="rhombus;whiteSpace=wrap;html=1;fillColor=rgb(255, 255, 255);strokeColor=rgb(0, 0, 0);fontColor=rgb(0, 0, 0);" vertex="1" parent="3">
          <mxGeometry x="100" y="422" width="120" height="88" as="geometry" />
        </mxCell>
        <mxCell id="4" value="元数据" style="swimlane;whiteSpace=wrap" parent="1" vertex="1">
          <mxGeometry x="724.5" y="128" width="280" height="570" as="geometry" />
        </mxCell>
        <mxCell id="EH8jYJosOtOeuhWnZdbH-45" value="" style="shape=cylinder3;whiteSpace=wrap;html=1;boundedLbl=1;backgroundOutline=1;size=13.333333333333428;" parent="4" vertex="1">
          <mxGeometry x="80" y="220" width="130" height="80" as="geometry" />
        </mxCell>
        <mxCell id="9UlX4zQVtP0Rxpw7Rmi_-66" value="" style="endArrow=classic;html=1;rounded=0;entryX=1;entryY=0.5;entryDx=0;entryDy=0;" edge="1" parent="4" target="9UlX4zQVtP0Rxpw7Rmi_-74">
          <mxGeometry width="50" height="50" relative="1" as="geometry">
            <mxPoint x="87.52999999999997" y="294" as="sourcePoint" />
            <mxPoint x="-116.9699999999998" y="430.8499999999999" as="targetPoint" />
          </mxGeometry>
        </mxCell>
        <mxCell id="9UlX4zQVtP0Rxpw7Rmi_-67" value="查询" style="text;html=1;align=center;verticalAlign=middle;resizable=0;points=[];autosize=1;strokeColor=none;fillColor=none;" vertex="1" parent="4">
          <mxGeometry y="362" width="40" height="20" as="geometry" />
        </mxCell>
        <mxCell id="EH8jYJosOtOeuhWnZdbH-46" value="" style="endArrow=classic;html=1;rounded=0;entryX=1;entryY=0.5;entryDx=0;entryDy=0;" parent="1" target="9UlX4zQVtP0Rxpw7Rmi_-68" edge="1">
          <mxGeometry width="50" height="50" relative="1" as="geometry">
            <mxPoint x="800" y="390" as="sourcePoint" />
            <mxPoint x="607.97" y="477.9999999999998" as="targetPoint" />
          </mxGeometry>
        </mxCell>
        <mxCell id="9UlX4zQVtP0Rxpw7Rmi_-44" style="edgeStyle=orthogonalEdgeStyle;rounded=0;orthogonalLoop=1;jettySize=auto;html=1;exitX=1;exitY=0.5;exitDx=0;exitDy=0;entryX=0.009;entryY=0.6;entryDx=0;entryDy=0;entryPerimeter=0;" edge="1" parent="1" source="EH8jYJosOtOeuhWnZdbH-41" target="15">
          <mxGeometry relative="1" as="geometry" />
        </mxCell>
        <mxCell id="9UlX4zQVtP0Rxpw7Rmi_-47" style="edgeStyle=orthogonalEdgeStyle;rounded=0;orthogonalLoop=1;jettySize=auto;html=1;exitX=1;exitY=0.5;exitDx=0;exitDy=0;entryX=0.009;entryY=0.6;entryDx=0;entryDy=0;entryPerimeter=0;" edge="1" parent="1" source="9UlX4zQVtP0Rxpw7Rmi_-41" target="18">
          <mxGeometry relative="1" as="geometry" />
        </mxCell>
        <mxCell id="9UlX4zQVtP0Rxpw7Rmi_-59" value="查询" style="text;html=1;align=center;verticalAlign=middle;resizable=0;points=[];autosize=1;strokeColor=none;fillColor=none;" vertex="1" parent="1">
          <mxGeometry x="690" y="410" width="40" height="20" as="geometry" />
        </mxCell>
        <mxCell id="9UlX4zQVtP0Rxpw7Rmi_-71" style="edgeStyle=orthogonalEdgeStyle;rounded=0;orthogonalLoop=1;jettySize=auto;html=1;exitX=0;exitY=0.5;exitDx=0;exitDy=0;" edge="1" parent="1" source="9UlX4zQVtP0Rxpw7Rmi_-68">
          <mxGeometry relative="1" as="geometry">
            <mxPoint x="360" y="473.8333333333335" as="targetPoint" />
          </mxGeometry>
        </mxCell>
        <mxCell id="9UlX4zQVtP0Rxpw7Rmi_-72" value="否" style="text;html=1;align=center;verticalAlign=middle;resizable=0;points=[];autosize=1;strokeColor=none;fillColor=none;" vertex="1" parent="1">
          <mxGeometry x="415" y="450" width="30" height="20" as="geometry" />
        </mxCell>
        <mxCell id="9UlX4zQVtP0Rxpw7Rmi_-78" style="edgeStyle=orthogonalEdgeStyle;rounded=0;orthogonalLoop=1;jettySize=auto;html=1;exitX=1;exitY=0.5;exitDx=0;exitDy=0;entryX=0;entryY=0.5;entryDx=0;entryDy=0;" edge="1" parent="1" source="9UlX4zQVtP0Rxpw7Rmi_-61" target="9UlX4zQVtP0Rxpw7Rmi_-74">
          <mxGeometry relative="1" as="geometry">
            <mxPoint x="480" y="589.6666666666667" as="targetPoint" />
          </mxGeometry>
        </mxCell>
        <mxCell id="9UlX4zQVtP0Rxpw7Rmi_-80" style="edgeStyle=orthogonalEdgeStyle;rounded=0;orthogonalLoop=1;jettySize=auto;html=1;exitX=0.5;exitY=0;exitDx=0;exitDy=0;entryX=0.44;entryY=1.068;entryDx=0;entryDy=0;entryPerimeter=0;" edge="1" parent="1" source="9UlX4zQVtP0Rxpw7Rmi_-74" target="9UlX4zQVtP0Rxpw7Rmi_-73">
          <mxGeometry relative="1" as="geometry">
            <Array as="points">
              <mxPoint x="550" y="530" />
              <mxPoint x="323" y="530" />
            </Array>
          </mxGeometry>
        </mxCell>
        <mxCell id="9UlX4zQVtP0Rxpw7Rmi_-81" value="是" style="text;html=1;align=center;verticalAlign=middle;resizable=0;points=[];autosize=1;strokeColor=none;fillColor=none;" vertex="1" parent="1">
          <mxGeometry x="415" y="510" width="30" height="20" as="geometry" />
        </mxCell>
      </root>
    </mxGraphModel>
  </diagram>
</mxfile>
